<svg width="27" height="27" viewBox="0 0 27 27" fill="none" xmlns="http://www.w3.org/2000/svg">
<path d="M10.0672 25.9273C10.0672 25.9273 10.0894 25.2508 10.0894 24.8186C10.0894 24.6397 10.0863 24.3234 10.0823 23.9003C10.0776 23.4103 10.0715 22.7768 10.0671 22.0471C5.47748 23.0316 4.50911 19.8619 4.50911 19.8619C3.75853 17.9798 2.67671 17.4786 2.67671 17.4786C1.17857 16.467 2.79016 16.487 2.79016 16.487C4.44631 16.6031 5.31744 18.1669 5.31744 18.1669C6.78924 20.6573 9.17977 19.9379 10.1198 19.5217C10.2697 18.4681 10.6951 17.7497 11.1672 17.3425C7.50336 16.9313 3.65115 15.5325 3.65115 9.28705C3.65115 7.50807 4.29437 6.05327 5.34985 4.91364C5.17968 4.50142 4.61345 2.8445 5.51091 0.600268C5.51091 0.600268 6.89661 0.162027 10.0489 2.27119C11.3647 1.90999 12.7767 1.72889 14.1796 1.72289C15.5805 1.72889 16.9926 1.90999 18.3104 2.27119C21.4606 0.162027 22.8433 0.600268 22.8433 0.600268C23.7438 2.8445 23.1776 4.50142 23.0074 4.91364C24.0649 6.05327 24.7041 7.50807 24.7041 9.28705C24.7041 15.5485 20.8458 16.9263 17.1698 17.3295C17.7624 17.8328 18.2901 18.8273 18.2901 20.3481C18.2901 21.8049 18.2811 23.0736 18.2751 23.9141C18.2721 24.3304 18.2699 24.6416 18.2699 24.8186C18.2699 25.2548 18.2699 25.9327 18.2699 25.9327C18.2699 25.9327 17.6246 26.4375 14.1791 26.4375C10.7469 26.4375 10.0672 25.9273 10.0672 25.9273Z" stroke="white"/>
</svg>
