<svg width="28" height="28" viewBox="0 0 28 28" fill="none" xmlns="http://www.w3.org/2000/svg">
<path fill-rule="evenodd" clip-rule="evenodd" d="M6.45706 4.21623C6.45706 5.72457 5.34563 6.94524 3.60755 6.94524C1.93718 6.94524 0.825755 5.72457 0.860151 4.21623C0.825755 2.63458 1.93716 1.44946 3.64084 1.44946C5.3456 1.44946 6.42374 2.63458 6.45706 4.21623ZM0.999891 26.6703V9.10112H6.28399V26.6692H0.999891V26.6703Z" stroke="white"/>
<path fill-rule="evenodd" clip-rule="evenodd" d="M10.5186 14.7082C10.5186 12.5167 10.4488 10.6485 10.3789 9.10352H14.9686L15.2126 11.5104H15.3169C16.0124 10.3964 17.7504 8.70923 20.5666 8.70923C24.0428 8.70923 26.6505 11.0806 26.6505 16.252V26.6727H21.3663V16.9362C21.3663 14.6715 20.6021 13.1276 18.6899 13.1276C17.2291 13.1276 16.3606 14.1695 16.0134 15.1747C15.8737 15.5345 15.8049 16.0366 15.8049 16.5408V26.6727H10.5208V14.7082H10.5186Z" stroke="white"/>
</svg>
