<svg width="30" height="28" viewBox="0 0 30 28" fill="none" xmlns="http://www.w3.org/2000/svg">
<path fill-rule="evenodd" clip-rule="evenodd" d="M28 5.84381C27.0074 6.28478 25.9391 6.58176 24.8187 6.71585C25.9625 6.03009 26.8409 4.94477 27.2539 3.65155C26.1848 4.28691 24.9978 4.74678 23.737 4.99607C22.7264 3.91974 21.2855 3.24658 19.6935 3.24658C16.6347 3.24658 14.1544 5.72682 14.1544 8.78571C14.1544 9.21948 14.2039 9.64245 14.2984 10.0483C9.69432 9.81794 5.61309 7.61219 2.88087 4.26081C2.40391 5.07886 2.13122 6.0301 2.13122 7.04524C2.13122 8.96661 3.10766 10.6621 4.59526 11.6556C3.68632 11.6268 2.83318 11.3775 2.08533 10.9627V11.032C2.08533 13.7165 3.9959 15.9546 6.52833 16.4649C6.06396 16.5909 5.57439 16.6593 5.06953 16.6593C4.71225 16.6593 4.36487 16.6242 4.0265 16.5594C4.73115 18.7597 6.77761 20.3616 9.20115 20.4066C7.30588 21.8915 4.91744 22.778 2.32201 22.778C1.87384 22.778 1.43287 22.7519 1 22.6997C3.45144 24.271 6.36274 25.1889 9.49093 25.1889C19.6792 25.1889 25.2507 16.7484 25.2507 9.42917C25.2507 9.18888 25.2462 8.94951 25.2345 8.71282C26.318 7.92987 27.2575 6.95434 28 5.84381Z" stroke="black"/>
</svg>
